<svg xmlns="http://www.w3.org/2000/svg" width="30" height="380"><path fill="#171717" d="M0 0h30v380H0Z"/><path fill="#2a2a2a" d="M.3.3h29.4v379.4H0Z"/><path fill="#c91847" d="M.3 16h29.4v16H0Z"/><path d="M22 360a7 7 0 0 1-7 7 7 7 0 0 1-7-7 7 7 0 0 1 7-7 7 7 0 0 1 7 7" style="fill:#f0f0f0"/><path d="M22 362a5 5 0 0 1-5 5 5 5 0 0 1-5-5 5 5 0 0 1 5-5 5 5 0 0 1 5 5" style="fill:#2a2a2a"/><path d="M22 364a3 3 0 0 1-3 3 3 3 0 0 1-3-3 3 3 0 0 1 3-3 3 3 0 0 1 3 3" style="fill:#f0f0f0"/><path d="M4.75 78h20.5c2.216 0 4 1.784 4 4v90c0 2.216-1.784 4-4 4H4.75c-2.216 0-4-1.784-4-4V82c0-2.216 1.784-4 4-4M4.75 250h20.5c2.216 0 4 1.784 4 4v90c0 2.216-1.784 4-4 4H4.75c-2.216 0-4-1.784-4-4v-90c0-2.216 1.784-4 4-4" style="fill:#ededed"/><g aria-label="MULT" style="font-weight:700;font-family:&quot;Envy Code R&quot;;-inkscape-font-specification:&quot;Envy Code R&quot;;letter-spacing:0;word-spacing:0;fill:#fff;stroke-width:1px"><path d="m5.857 22.214-.964 2.41-.964-2.41V28H2.006L2 19.345v-.024h1.447l1.446 3.375 1.447-3.375h1.446V28H5.857ZM8.714 19.32h1.929v6.27q0 .36.012.634.018.268.11.452.091.177.287.268t.555.092.555-.092.287-.268q.092-.184.104-.452.018-.275.018-.635v-6.268H14.5v6.268q0 .543-.25.989-.244.445-.653.763-.41.311-.928.488-.519.171-1.062.171t-1.062-.17q-.519-.178-.928-.49-.409-.317-.659-.762-.244-.446-.244-.989v-2.41zM15.428 19.32h1.928v7.716h3.858V28h-5.786zM24.07 20.285h-1.928v-.964h5.786v.964h-1.929V28H24.07z" style="font-size:12.5px"/></g><g aria-label="IN AIN B" style="font-family:&quot;Envy Code R&quot;;-inkscape-font-specification:&quot;Envy Code R&quot;;letter-spacing:0;word-spacing:0;fill:#f0f0f0;stroke-width:1px"><path d="M6.617 46.383h1.235v-4.32H6.617v-.618h3.086v.617H8.47v4.32h1.234V47H6.617ZM10.914 47v-5.555h.617l1.852 4.11v-4.11H14V47h-.617l-1.852-4.11V47ZM19.508 42.988q0-.32.12-.601.122-.282.329-.489.211-.21.492-.332.281-.12.602-.12t.601.12q.282.121.489.332.21.207.332.489.12.281.12.601V47h-.616v-2.469h-1.852V47h-.617zm2.469.926v-.926q0-.191-.075-.36-.07-.167-.199-.292-.125-.129-.293-.2-.168-.074-.36-.074-.19 0-.359.075-.168.07-.296.199-.125.125-.2.293-.07.168-.07.36v.925zM6.617 217.383h1.235v-4.32H6.617v-.618h3.086v.618H8.47v4.32h1.234V218H6.617ZM10.914 218v-5.555h.617l1.852 4.11v-4.11H14V218h-.617l-1.852-4.11V218ZM19.508 212.445h1.543q.32 0 .601.121.282.122.489.332.21.207.332.489.12.281.12.601 0 .383-.171.703-.168.32-.45.532.282.21.45.535.172.32.172.699 0 .32-.121.602-.121.28-.332.492-.207.207-.489.328-.28.121-.601.121h-1.543zm1.543 2.47q.191 0 .36-.071.167-.074.292-.2.129-.128.2-.296.074-.168.074-.36t-.075-.36q-.07-.167-.199-.292-.125-.129-.293-.2-.168-.073-.36-.073h-.925v1.851zm0 2.468q.191 0 .36-.07.167-.075.292-.2.129-.129.2-.297.074-.168.074-.359t-.075-.36q-.07-.167-.199-.292-.125-.13-.293-.2-.168-.074-.36-.074h-.925v1.852z" style="font-size:8px"/></g><g aria-label="OUTOUT" style="font-family:&quot;Envy Code R&quot;;-inkscape-font-specification:&quot;Envy Code R&quot;;letter-spacing:0;word-spacing:0;fill:#171717;stroke-width:1px"><path d="M9.617 83.988q0-.32.121-.601.121-.282.328-.489.211-.21.493-.332.28-.12.601-.12t.602.12q.281.121.488.332.21.207.332.489.121.281.121.601v2.469q0 .32-.121.602-.121.28-.332.492-.207.207-.488.328T11.16 88t-.601-.121-.493-.328q-.207-.211-.328-.492-.12-.282-.12-.602Zm1.543-.925q-.191 0-.36.074-.167.07-.296.199-.125.125-.2.293-.07.168-.07.36v2.468q0 .191.07.36.075.167.2.296.129.125.297.2.168.07.36.07.19 0 .359-.07.168-.075.293-.2.128-.129.199-.297.074-.168.074-.359v-2.469q0-.191-.074-.36-.07-.167-.2-.292-.124-.129-.292-.2-.168-.073-.36-.073M13.914 82.445h.617v4.012q0 .191.07.36.075.167.2.296.129.125.297.2.168.07.359.07t.36-.07q.167-.075.292-.2.13-.129.2-.297.074-.168.074-.359v-4.012H17v4.012q0 .32-.121.602-.121.28-.332.492-.207.207-.488.328t-.602.121-.602-.121q-.28-.121-.492-.328-.207-.211-.328-.492-.12-.282-.12-.602v-1.543zM19.445 83.063h-1.234v-.618h3.086v.618h-1.235V88h-.617zM9.617 255.988q0-.32.121-.601.121-.282.328-.489.211-.21.493-.332.28-.12.601-.12t.602.12q.281.121.488.332.21.207.332.489.121.281.121.601v2.469q0 .32-.121.602-.121.28-.332.492-.207.207-.488.328t-.602.121-.601-.121-.493-.328q-.207-.211-.328-.492-.12-.282-.12-.602zm1.543-.925q-.191 0-.36.074-.167.07-.296.199-.125.125-.2.293-.07.168-.07.36v2.468q0 .191.07.36.075.167.2.296.129.125.297.2.168.07.36.07.19 0 .359-.07.168-.075.293-.2.128-.129.199-.297.074-.168.074-.359v-2.469q0-.191-.074-.36-.07-.167-.2-.292-.124-.129-.292-.2-.168-.074-.36-.074M13.914 254.445h.617v4.012q0 .191.07.36.075.167.2.296.129.125.297.2.168.07.359.07t.36-.07q.167-.075.292-.2.13-.129.2-.297.074-.168.074-.359v-4.012H17v4.012q0 .32-.121.602-.121.28-.332.492-.207.207-.488.328t-.602.121-.602-.121q-.28-.121-.492-.328-.207-.211-.328-.492-.12-.282-.12-.602v-1.543zM19.445 255.063h-1.234v-.618h3.086v.618h-1.235V260h-.617z" style="font-size:8px"/></g></svg>