<svg xmlns="http://www.w3.org/2000/svg" width="45" height="380"><path fill="#171717" d="M0 0h45v380H0z"/><path fill="#2a2a2a" d="M.3.3h44.4v379.4H0z"/><path fill="#c91847" d="M.3 16h44.4v16H0z"/><circle cx="22.5" cy="360" r="7" style="fill:#f0f0f0"/><circle cx="24.5" cy="362" r="5" style="fill:#2a2a2a"/><circle cx="26.5" cy="364" r="3" style="fill:#f0f0f0"/><path d="M22.5 80v16" style="fill:none;stroke:#f0f0f0;stroke-width:.7"/><rect width="28.5" height="42" x="8" y="232" fill="#ededed" rx="4" ry="4"/><rect width="28.5" height="71" x="8" y="277" fill="#1994b3" rx="4" ry="4"/><circle cx="22.5" cy="303" r="14" style="fill:#171717"/><path d="M3 19.32h2.893q.543 0 1.062.178.519.17.928.488.409.311.653.757.25.445.25.989v3.857q0 .543-.25.989-.244.445-.653.763-.41.311-.928.488Q6.436 28 5.893 28H3Zm2.893 7.716q.36 0 .555-.092.196-.091.287-.268.092-.184.104-.452.018-.275.018-.635v-3.857q0-.36-.018-.629-.012-.275-.104-.452-.091-.183-.287-.274t-.555-.092H4.93v6.75zm5.75-5.304q0 .36.012.634.018.269.11.452.091.177.287.269.195.091.555.091.72 0 1.263.177.544.171.904.489.366.31.543.756.183.446.183.99 0 .542-.25.988-.244.445-.653.763-.41.311-.928.488-.519.171-1.062.171H9.714v-.964h2.893q.36 0 .555-.092.196-.091.287-.268.092-.184.104-.452.018-.275.018-.635t-.018-.629q-.012-.274-.104-.451-.091-.183-.287-.275-.195-.091-.555-.091-.726 0-1.27-.171-.537-.177-.903-.489-.36-.317-.543-.763-.177-.445-.177-.988 0-.544.244-.99.25-.445.66-.756.408-.317.927-.488.519-.177 1.062-.177H15.5v.964h-2.893q-.36 0-.555.092-.196.091-.287.274-.092.177-.11.452-.012.269-.012.629m6.713 3.375-1.928-5.786h1.928l.965 3.857.964-3.857h1.978l-1.978 5.786V28h-1.929zm5.75-1.929h4.822v.965h-4.822zm9.607-.964-.964 2.41-.965-2.41V28h-1.922l-.007-8.655v-.024h1.447l1.447 3.375 1.446-3.375h1.447V28h-1.93zm5.75-.482.964-2.411h1.94l-1.952 4.34L42.368 28h-1.941l-.965-2.41-.964 2.41h-1.929l1.917-4.34-1.917-4.34h1.929z" aria-label="DSY-MX" style="font-weight:700;font-size:12.5px;font-family:&quot;Envy Code R&quot;;-inkscape-font-specification:&quot;Envy Code R&quot;;letter-spacing:0;word-spacing:0;fill:#fff;stroke-width:1px"/><g aria-label="MASTERCV" style="font-family:&quot;Envy Code R&quot;;-inkscape-font-specification:&quot;Envy Code R&quot;;letter-spacing:0;word-spacing:0;fill:#f0f0f0;stroke-width:1px"><path d="m13.086 42.68-.926 1.617-.926-1.617V47h-.617v-5.555h.617l.926 1.852.926-1.852h.617V47h-.617zm1.828.308q0-.32.121-.601.121-.282.328-.489.211-.21.492-.332.282-.12.602-.12t.602.12q.28.121.488.332.21.207.332.489.121.281.121.601V47h-.617v-2.469H15.53V47h-.617zm2.469.926v-.926q0-.191-.074-.36-.07-.167-.2-.292-.125-.129-.293-.2-.168-.074-.359-.074t-.36.075q-.167.07-.296.199-.125.125-.2.293-.07.168-.07.36v.925zm2.445-.926q0 .192.07.36.075.168.2.297.129.125.297.199.167.07.359.07.32 0 .601.121.282.121.489.332.21.207.332.488.12.282.12.602t-.12.602q-.121.28-.332.492-.207.207-.489.328-.28.121-.601.121H19.21v-.617h1.543q.191 0 .36-.07.167-.075.292-.2.13-.129.2-.297.074-.168.074-.359t-.075-.36q-.07-.167-.199-.292-.125-.13-.293-.2-.168-.074-.36-.074-.32 0-.6-.12-.282-.122-.493-.329-.207-.21-.328-.492-.121-.281-.121-.602t.121-.601q.121-.282.328-.489.211-.21.492-.332.282-.12.602-.12h1.543v.617h-1.543q-.192 0-.36.074-.167.07-.296.199-.125.125-.2.293-.07.168-.07.36m4.914-.925h-1.234v-.618h3.086v.617h-1.235V47h-.617zm3.063-.618h3.086v.617h-2.47v1.852h1.852v.617h-1.851v1.852h2.469V47h-3.086zm6.191 3.047q1.219 2.496 1.219 2.508h-.707q-1.203-2.457-1.203-2.469h-.586V47h-.617v-5.555h1.543q.32 0 .601.121t.488.332q.211.207.332.489.121.281.121.601 0 .274-.09.52t-.25.445-.378.34-.473.2m-.351-.578q.19 0 .359-.07.168-.074.293-.2.129-.128.2-.296.073-.168.073-.36t-.074-.36q-.07-.167-.2-.292-.124-.129-.292-.2-.168-.074-.36-.074h-.925v1.852zM20.172 124.063q-.2 0-.371.074-.172.07-.297.199-.125.125-.2.293-.07.168-.07.36v2.468q0 .191.07.36.075.167.2.296.125.125.297.2.172.07.37.07.165 0 .31-.043.144-.047.261-.13.121-.081.207-.194.09-.114.137-.25h.617q-.055.265-.191.492-.137.226-.34.39-.2.164-.453.258-.254.094-.547.094-.328 0-.613-.121-.282-.121-.493-.328-.21-.211-.332-.492-.117-.282-.117-.602v-2.469q0-.32.117-.601.121-.282.332-.489.211-.21.493-.332.285-.12.613-.12.293 0 .547.093.258.094.457.262.199.164.336.39.136.227.191.489h-.617q-.047-.133-.137-.246-.086-.114-.203-.196t-.266-.129q-.144-.047-.308-.047m3.36-.618.925 4.063.926-4.063H26L24.766 129h-.618l-1.234-5.555z" style="font-size:8px"/></g><g aria-label="OUTDAISY" style="font-family:&quot;Envy Code R&quot;;-inkscape-font-specification:&quot;Envy Code R&quot;;letter-spacing:0;word-spacing:0;fill:#171717;stroke-width:1px"><path d="M15.617 237.988q0-.32.121-.601.121-.282.328-.489.211-.21.493-.332.28-.12.601-.12t.602.12q.281.121.488.332.21.207.332.489.121.281.121.601v2.469q0 .32-.121.602-.121.28-.332.492-.207.207-.488.328t-.602.121-.601-.121-.493-.328q-.207-.211-.328-.492-.12-.282-.12-.602zm1.543-.925q-.191 0-.36.074-.167.07-.296.199-.125.125-.2.293-.07.168-.07.36v2.468q0 .191.07.36.075.167.2.296.129.125.297.2.168.07.36.07.19 0 .359-.07.168-.075.293-.2.128-.129.199-.297.074-.168.074-.359v-2.469q0-.191-.074-.36-.07-.167-.2-.292-.125-.129-.292-.2-.168-.074-.36-.074m2.754-.618h.617v4.012q0 .191.07.36.075.167.2.296.129.125.297.2.168.07.359.07t.36-.07q.167-.075.292-.2.13-.129.2-.297.074-.168.074-.359v-4.012H23v4.012q0 .32-.121.602-.121.28-.332.492-.207.207-.488.328t-.602.121-.602-.121q-.28-.121-.492-.328-.207-.211-.328-.492-.12-.282-.12-.602v-1.543zm5.531.618h-1.234v-.618h3.086v.618h-1.235V242h-.617zM11.617 280.445h1.543q.32 0 .602.121.281.122.488.332.21.207.332.489.121.281.121.601v2.469q0 .32-.121.602-.121.28-.332.492-.207.207-.488.328t-.602.121h-1.543zm1.543 4.938q.192 0 .36-.07.168-.075.293-.2.128-.129.199-.297.074-.168.074-.359v-2.469q0-.191-.074-.36-.07-.167-.2-.292-.124-.129-.292-.2-.168-.073-.36-.073h-.926v4.32zm2.754-3.395q0-.32.121-.601.121-.282.328-.489.211-.21.492-.332.282-.12.602-.12t.602.12q.28.122.488.332.21.207.332.489.121.281.121.601V286h-.617v-2.469H16.53V286h-.617zm2.469.926v-.926q0-.191-.074-.36-.07-.167-.2-.292-.125-.129-.293-.2-.168-.073-.359-.073t-.36.074q-.167.07-.296.199-.125.125-.2.293-.07.168-.07.36v.925zm1.828 2.469h1.234v-4.32h-1.234v-.618h3.086v.618h-1.235v4.32h1.235V286H20.21Zm4.914-3.395q0 .192.07.36.075.168.2.297.128.125.296.199.168.07.36.07.32 0 .601.121.282.121.489.332.21.207.332.488.12.282.12.602t-.12.602q-.121.28-.332.492-.207.207-.489.328-.28.121-.601.121h-1.543v-.617h1.543q.191 0 .36-.07.167-.075.292-.2.129-.129.2-.297.074-.168.074-.359t-.075-.36q-.07-.167-.199-.292-.125-.13-.293-.2-.168-.074-.36-.074-.32 0-.6-.12-.282-.122-.493-.329-.207-.21-.328-.492-.121-.281-.121-.602t.12-.601.329-.489q.211-.21.492-.332.281-.12.602-.12h1.543v.617H26.05q-.192 0-.36.074-.168.07-.296.199-.125.125-.2.293-.07.168-.07.36m4.914 2.168-1.234-3.71h.617l.926 2.777.925-2.778h.618l-1.235 3.703V286h-.617z" style="font-size:8px"/></g></svg>