<svg xmlns="http://www.w3.org/2000/svg" width="45" height="380"><path fill="#171717" d="M0 0h45v380H0Z"/><path fill="#2a2a2a" d="M.3.3h44.4v379.4H0Z"/><path fill="#c91847" d="M.3 16h44.4v16H0Z"/><path d="M39.5 360a7 7 0 0 1-7 7 7 7 0 0 1-7-7 7 7 0 0 1 7-7 7 7 0 0 1 7 7" style="fill:#f0f0f0"/><path d="M39.5 362a5 5 0 0 1-5 5 5 5 0 0 1-5-5 5 5 0 0 1 5-5 5 5 0 0 1 5 5" style="fill:#2a2a2a"/><path d="M39.5 364a3 3 0 0 1-3 3 3 3 0 0 1-3-3 3 3 0 0 1 3-3 3 3 0 0 1 3 3" style="fill:#f0f0f0"/><path d="M22.5 80v16" style="fill:none;stroke:#f0f0f0;stroke-width:.7"/><path d="M12 277h20.5c2.216 0 4 1.784 4 4v58c0 2.216-1.784 4-4 4H12c-2.216 0-4-1.784-4-4v-58c0-2.216 1.784-4 4-4" style="fill:#ededed"/><path d="M0 346h14.25c2.216 0 4 1.784 4 4v12c0 2.216-1.784 4-4 4H0c-2.216 0-4-1.784-4-4v-12c0-2.216 1.784-4 4-4" style="fill:#1994b3"/><g aria-label="D-MX2" style="font-weight:700;font-family:&quot;Envy Code R&quot;;-inkscape-font-specification:&quot;Envy Code R&quot;;letter-spacing:0;word-spacing:0;fill:#fff;stroke-width:1px"><path d="M6 19.32h2.893q.543 0 1.062.178.519.17.928.488.409.311.653.757.25.445.25.989v3.857q0 .543-.25.989-.244.445-.653.763-.41.311-.928.488Q9.436 28 8.893 28H6Zm2.893 7.716q.36 0 .555-.092.196-.091.287-.268.092-.184.104-.452.018-.275.018-.635v-3.857q0-.36-.018-.629-.012-.275-.104-.452-.091-.183-.287-.274t-.555-.092H7.93v6.75zM13.678 23.178H18.5v.965h-4.822zM23.285 22.214l-.964 2.41-.965-2.41V28h-1.922l-.006-8.655v-.024h1.446l1.447 3.375 1.446-3.375h1.447V28h-1.929zM29.035 21.732l.964-2.411h1.94l-1.952 4.34L31.94 28h-1.941l-.964-2.41L28.07 28h-1.928l1.916-4.34-1.916-4.34h1.928zM35.272 19.32q-.5 0-.94.153t-.769.415-.518.617q-.19.348-.19.745h1.941q0-.202.037-.373.037-.177.098-.305.067-.134.152-.207.092-.08.19-.08h.964q.097 0 .183.08.091.073.153.207.067.128.103.305.037.171.037.373v.775q0 .22-.122.415-.116.195-.311.384-.196.183-.452.366-.256.184-.537.367-.434.287-.867.592-.433.299-.781.592t-.568.567-.22.52V28h5.787v-.964h-3.858v-.965q0-.268.14-.5.14-.238.367-.452.226-.22.512-.415.287-.201.58-.397.41-.268.818-.543.41-.28.726-.55.324-.268.525-.518.202-.256.202-.482v-.964q0-.397-.19-.745-.189-.354-.518-.617-.33-.262-.77-.415-.439-.152-.94-.152z" style="font-size:12.5px"/></g><g aria-label="MASTERCV" style="font-family:&quot;Envy Code R&quot;;-inkscape-font-specification:&quot;Envy Code R&quot;;letter-spacing:0;word-spacing:0;fill:#f0f0f0;stroke-width:1px"><path d="m13.086 37.68-.926 1.617-.926-1.617V42h-.617v-5.555h.617l.926 1.852.926-1.852h.617V42h-.617zM14.914 37.988q0-.32.121-.601.121-.282.328-.489.211-.21.492-.332.282-.12.602-.12t.602.12q.28.121.488.332.21.207.332.489.121.281.121.601V42h-.617v-2.469H15.53V42h-.617zm2.469.926v-.926q0-.191-.074-.36-.07-.167-.2-.292-.125-.129-.293-.2-.168-.074-.359-.074t-.36.075q-.167.07-.296.199-.125.125-.2.293-.07.168-.07.36v.925zM19.828 37.988q0 .192.07.36.075.168.2.297.129.125.297.199.167.07.359.07.32 0 .601.121.282.121.489.332.21.207.332.488.12.282.12.602t-.12.602q-.121.28-.332.492-.207.207-.489.328-.28.121-.601.121H19.21v-.617h1.543q.191 0 .36-.07.167-.075.292-.2.13-.129.2-.297.074-.168.074-.359t-.075-.36q-.07-.167-.199-.292-.125-.13-.293-.2-.168-.074-.36-.074-.32 0-.6-.12-.282-.122-.493-.329-.207-.21-.328-.492-.121-.281-.121-.602t.121-.601q.121-.282.328-.489.211-.21.492-.332.282-.12.602-.12h1.543v.617h-1.543q-.192 0-.36.074-.167.07-.296.199-.125.125-.2.293-.07.168-.07.36M24.742 37.063h-1.234v-.618h3.086v.617h-1.235V42h-.617zM27.805 36.445h3.086v.617h-2.47v1.852h1.852v.617h-1.851v1.852h2.469V42h-3.086zM33.996 39.492q1.219 2.496 1.219 2.508h-.707q-1.203-2.457-1.203-2.469h-.586V42h-.617v-5.555h1.543q.32 0 .601.121t.488.332q.211.207.332.489.121.281.121.601 0 .274-.09.52t-.25.445-.378.34-.473.2m-.351-.578q.19 0 .359-.07.168-.074.293-.2.129-.128.2-.296.073-.168.073-.36t-.074-.36q-.07-.167-.2-.292-.124-.129-.292-.2-.168-.074-.36-.074h-.925v1.852zM20.172 124.063q-.2 0-.371.074-.172.07-.297.199-.125.125-.2.293-.07.168-.07.36v2.468q0 .191.07.36.075.167.2.296.125.125.297.2.172.07.37.07.165 0 .31-.043.144-.047.261-.13.121-.081.207-.194.09-.114.137-.25h.617q-.055.265-.191.492-.137.226-.34.39-.2.164-.453.258-.254.094-.547.094-.328 0-.613-.121-.282-.121-.493-.328-.21-.211-.332-.492-.117-.282-.117-.602v-2.469q0-.32.117-.601.121-.282.332-.489.211-.21.493-.332.285-.12.613-.12.293 0 .547.093.258.094.457.262.199.164.336.39.136.227.191.489h-.617q-.047-.133-.137-.246-.086-.114-.203-.196t-.266-.129q-.144-.047-.308-.047M23.531 123.445l.926 4.063.926-4.063H26L24.766 129h-.618l-1.234-5.555z" style="font-size:8px"/></g><g aria-label="OUT" style="font-family:&quot;Envy Code R&quot;;-inkscape-font-specification:&quot;Envy Code R&quot;;letter-spacing:0;word-spacing:0;fill:#171717;stroke-width:1px"><path d="M15.617 282.988q0-.32.121-.601.121-.282.328-.489.211-.21.493-.332.28-.12.601-.12t.602.12.488.332q.21.207.332.489.121.281.121.601v2.469q0 .32-.121.602-.121.28-.332.492-.207.207-.488.328t-.602.121-.601-.121-.493-.328q-.207-.211-.328-.492-.12-.282-.12-.602zm1.543-.926q-.191 0-.36.075-.167.07-.296.199-.125.125-.2.293-.07.168-.07.36v2.468q0 .191.07.36.075.167.2.296.129.125.297.2.168.07.36.07.19 0 .359-.07.168-.075.293-.2.128-.129.199-.297.074-.168.074-.359v-2.469q0-.191-.074-.36-.07-.167-.2-.292-.125-.129-.292-.2-.168-.074-.36-.074M19.914 281.445h.617v4.012q0 .191.07.36.075.167.2.296.129.125.297.2.168.07.359.07t.36-.07q.167-.075.292-.2.13-.129.2-.297.074-.168.074-.359v-4.012H23v4.012q0 .32-.121.602-.121.28-.332.492-.207.207-.488.328t-.602.121-.602-.121q-.28-.121-.492-.328-.207-.211-.328-.492-.12-.282-.12-.602v-1.543zM25.445 282.063h-1.234v-.618h3.086v.618h-1.235V287h-.617z" style="font-size:8px"/></g></svg>