<svg xmlns="http://www.w3.org/2000/svg" width="30" height="380"><path fill="#171717" d="M0 0h30v380H0z"/><path fill="#2a2a2a" d="M.3.3h29.4v379.4H0z"/><path fill="#c91847" d="M.3 16h29.4v16H0z"/><path d="M14.75 126v16" style="fill:none;stroke:#f0f0f0;stroke-width:.7"/><rect width="28.5" height="66" x=".75" y="277" fill="#ededed" rx="4" ry="4"/><path fill="#1994b3" d="M0 346h29.25v20H0z"/><path d="M5 19.32h2.893q.543 0 1.062.178.519.17.928.488.409.311.653.757.25.445.25.989v3.857q0 .543-.25.989-.244.445-.653.763-.41.311-.928.488Q8.436 28 7.893 28H5Zm2.893 7.716q.36 0 .555-.092.196-.091.287-.268.092-.184.104-.452.018-.275.018-.635v-3.857q0-.36-.018-.629-.012-.275-.104-.452-.091-.183-.287-.274t-.555-.092H6.93v6.75zm6.714-6.75q-.3 0-.488.115-.19.11-.293.311-.104.196-.147.458-.036.263-.036.562v3.857q0 .3.036.562.043.262.147.464.103.195.293.31.189.11.488.11.238 0 .415-.079.183-.085.305-.22.122-.14.183-.31.061-.172.061-.355h1.88q.018.36-.22.708t-.64.623q-.403.268-.922.433T14.607 28t-1.062-.17q-.519-.178-.928-.49-.409-.317-.659-.762-.244-.446-.244-.989v-3.857q0-.544.244-.99.25-.445.66-.756.408-.317.927-.488.519-.177 1.062-.177t1.062.165.922.439q.402.269.64.617.238.347.22.708h-1.88q0-.184-.06-.354-.062-.171-.184-.306-.122-.14-.305-.22-.177-.085-.415-.085m6.238-.965q-.5 0-.94.152-.44.153-.77.415-.329.263-.518.617-.19.348-.19.745h1.942q0-.202.036-.373.037-.177.098-.305.067-.134.153-.207.091-.08.189-.08h.964q.098 0 .183.08.092.073.153.207.067.128.104.305.036.171.036.373v.775q0 .22-.122.415-.116.195-.311.384-.196.183-.452.366-.256.184-.537.367-.433.287-.867.592-.433.299-.78.592-.349.293-.569.567-.22.275-.22.52V28h5.787v-.964h-3.858v-.965q0-.268.14-.5.141-.238.367-.452.226-.22.513-.415.287-.201.58-.397.409-.268.817-.543.41-.28.727-.55.323-.268.525-.518.201-.256.201-.482v-.964q0-.397-.19-.745-.188-.354-.518-.617-.33-.262-.769-.415-.44-.152-.94-.152z" aria-label="DC2" style="font-weight:700;font-size:12.5px;font-family:&quot;Envy Code R&quot;;-inkscape-font-specification:&quot;Envy Code R&quot;;letter-spacing:0;word-spacing:0;fill:#fff;stroke-width:1px"/><g aria-label="INCVPAN" style="font-family:&quot;Envy Code R&quot;;-inkscape-font-specification:&quot;Envy Code R&quot;;letter-spacing:0;word-spacing:0;fill:#f0f0f0;stroke-width:1px"><path d="M10.617 41.383h1.235v-4.32h-1.235v-.618h3.086v.617H12.47v4.32h1.234V42h-3.086Zm4.297.617v-5.555h.617l1.852 4.11v-4.11H18V42h-.617l-1.852-4.11V42ZM12.172 102.063q-.2 0-.371.074-.172.07-.297.199-.125.125-.2.293-.07.168-.07.36v2.468q0 .191.07.36.075.167.2.296.125.125.297.2.172.07.37.07.165 0 .31-.043.144-.047.261-.13.121-.081.207-.194.09-.114.137-.25h.617q-.055.265-.191.492-.137.226-.34.39-.2.164-.453.258-.254.094-.547.094-.328 0-.613-.121-.282-.121-.493-.328-.21-.211-.332-.492-.117-.282-.117-.602v-2.469q0-.32.117-.601.121-.282.332-.489.211-.21.493-.332.285-.12.613-.12.293 0 .547.093.258.094.457.262.199.164.336.39.136.227.191.489h-.617q-.047-.133-.137-.246-.086-.114-.203-.196t-.266-.129q-.144-.047-.308-.047m3.36-.618.925 4.063.926-4.063H18L16.766 107h-.618l-1.234-5.555zM9.734 228h-.617v-5.555h1.543q.32 0 .602.121.281.122.488.332.21.207.332.489.121.281.121.601t-.121.602-.332.492q-.207.207-.488.328t-.602.121h-.926Zm.926-3.086q.192 0 .36-.07.168-.074.293-.2.128-.128.199-.296.074-.168.074-.36t-.074-.36q-.07-.167-.2-.292-.124-.129-.292-.2-.168-.073-.36-.073h-.926v1.851zm2.754-.926q0-.32.121-.601.121-.282.328-.489.211-.21.492-.332.282-.12.602-.12t.602.12q.28.121.488.332.21.207.332.489.121.281.121.601V228h-.617v-2.469H14.03V228h-.617zm2.469.926v-.926q0-.191-.074-.36-.07-.167-.2-.292-.125-.129-.293-.2-.168-.073-.359-.073t-.36.074q-.167.07-.296.199-.125.125-.2.293-.07.168-.07.36v.925zM17.71 228v-5.555h.617l1.852 4.11v-4.11h.617V228h-.617l-1.852-4.11V228Z" style="font-size:8px"/></g><g aria-label="OUTDAISY" style="font-family:&quot;Envy Code R&quot;;-inkscape-font-specification:&quot;Envy Code R&quot;;letter-spacing:0;word-spacing:0;fill:#171717;stroke-width:1px"><path d="M9.617 282.988q0-.32.121-.601.121-.282.328-.489.211-.21.493-.332.28-.12.601-.12t.602.12.488.332q.21.207.332.489.121.281.121.601v2.469q0 .32-.121.602-.121.28-.332.492-.207.207-.488.328t-.602.121-.601-.121-.493-.328q-.207-.211-.328-.492-.12-.282-.12-.602zm1.543-.926q-.191 0-.36.075-.167.07-.296.199-.125.125-.2.293-.07.168-.07.36v2.468q0 .191.07.36.075.167.2.296.129.125.297.2.168.07.36.07.19 0 .359-.07.168-.075.293-.2.128-.129.199-.297.074-.168.074-.359v-2.469q0-.191-.074-.36-.07-.167-.2-.292-.124-.129-.292-.2-.168-.074-.36-.074m2.754-.617h.617v4.012q0 .191.07.36.075.167.2.296.129.125.297.2.168.07.359.07t.36-.07q.167-.075.292-.2.13-.129.2-.297.074-.168.074-.359v-4.012H17v4.012q0 .32-.121.602-.121.28-.332.492-.207.207-.488.328t-.602.121-.602-.121q-.28-.121-.492-.328-.207-.211-.328-.492-.12-.282-.12-.602v-1.543zm5.531.618h-1.234v-.618h3.086v.618h-1.235V287h-.617zM4.617 350.445H6.16q.32 0 .602.121.281.122.488.332.21.207.332.489.121.281.121.601v2.469q0 .32-.121.602-.121.28-.332.492-.207.207-.488.328T6.16 356H4.617Zm1.543 4.938q.192 0 .36-.07.168-.075.293-.2.128-.129.199-.297.074-.168.074-.359v-2.469q0-.191-.074-.36-.07-.167-.2-.292-.125-.129-.292-.2-.168-.073-.36-.073h-.926v4.32zm2.754-3.395q0-.32.121-.601.121-.282.328-.489.211-.21.492-.332.282-.12.602-.12t.602.12q.28.122.488.332.21.207.332.489.121.281.121.601V356h-.617v-2.469H9.53V356h-.617Zm2.469.926v-.926q0-.191-.074-.36-.07-.167-.2-.292-.125-.129-.293-.2-.168-.073-.359-.073t-.36.074q-.167.07-.296.199-.125.125-.2.293-.07.168-.07.36v.925zm1.828 2.469h1.234v-4.32h-1.234v-.618h3.086v.618h-1.235v4.32h1.235V356H13.21Zm4.914-3.395q0 .192.07.36.075.168.2.297.128.125.296.199.168.07.36.07.32 0 .601.121.282.121.489.332.21.207.332.488.12.282.12.602t-.12.602q-.121.28-.332.492-.207.207-.489.328-.28.121-.601.121h-1.543v-.617h1.543q.191 0 .36-.07.167-.075.292-.2.129-.129.2-.297.074-.168.074-.359t-.075-.36q-.07-.167-.199-.292-.125-.13-.293-.2-.168-.074-.36-.074-.32 0-.6-.12-.282-.122-.493-.329-.207-.21-.328-.492-.121-.281-.121-.602t.12-.601.329-.489q.211-.21.492-.332.281-.12.602-.12h1.543v.617H19.05q-.192 0-.36.074-.168.07-.296.199-.125.125-.2.293-.07.168-.07.36m4.914 2.168-1.234-3.71h.617l.926 2.777.925-2.778h.618l-1.235 3.703V356h-.617z" style="font-size:8px"/></g></svg>