<svg xmlns="http://www.w3.org/2000/svg" width="15" height="380"><path fill="#ababab" d="M0 0h15v380H0z"/><path fill="#e6e6e6" d="M.3.3h14.4v379.4H0z"/><path fill="#c91847" d="M.3 16h14.4v16H0z"/><path fill="#1994b3" d="M0 346h15v20H0z"/><path fill="#333" d="M.5 32H14v314H.5z"/><path d="m2.429 19.32.964 5.787.964-5.786h1.954L4.38 28H2.43L.5 19.32Zm4.785 0h1.929v6.27q0 .36.012.634.018.268.11.452.091.177.287.268t.555.092.555-.092.287-.268q.092-.184.104-.452.018-.275.018-.635v-6.268H13v6.268q0 .543-.25.989-.244.445-.653.763-.41.311-.928.488-.519.171-1.062.171t-1.062-.17q-.519-.178-.928-.49-.409-.317-.659-.762-.244-.446-.244-.989v-2.41z" aria-label="VU" style="font-weight:700;font-size:12.5px;font-family:&quot;Envy Code R&quot;;-inkscape-font-specification:&quot;Envy Code R&quot;;letter-spacing:0;word-spacing:0;fill:#fff;stroke-width:1px"/><path d="M3.617 350.445H5.16q.32 0 .602.121.281.122.488.332.21.207.332.489.121.281.121.601v2.469q0 .32-.121.602-.121.28-.332.492-.207.207-.488.328T5.16 356H3.617Zm1.543 4.938q.192 0 .36-.07.168-.075.293-.2.128-.129.199-.297.074-.168.074-.359v-2.469q0-.191-.074-.36-.07-.167-.2-.292-.125-.129-.292-.2-.168-.073-.36-.073h-.926v4.32zm3.371-3.395q0 .192.07.36.075.168.2.297.129.125.297.199.168.07.359.07.32 0 .602.121.28.121.488.332.21.207.332.488.121.282.121.602t-.121.602q-.121.28-.332.492-.207.207-.488.328t-.602.121H7.914v-.617h1.543q.191 0 .36-.07.167-.075.292-.2.13-.129.2-.297.074-.168.074-.359t-.074-.36q-.07-.167-.2-.292-.125-.13-.293-.2-.168-.074-.359-.074-.32 0-.602-.12-.28-.122-.492-.329-.207-.21-.328-.492-.12-.281-.12-.602t.12-.601q.121-.282.328-.489.211-.21.492-.332.282-.12.602-.12H11v.617H9.457q-.191 0-.36.074-.167.07-.296.199-.125.125-.2.293-.07.168-.07.36" aria-label="DS" style="font-size:8px;font-family:&quot;Envy Code R&quot;;-inkscape-font-specification:&quot;Envy Code R&quot;;letter-spacing:0;word-spacing:0;fill:#fff;stroke-width:1px"/></svg>