<svg xmlns="http://www.w3.org/2000/svg" width="30" height="380"><path fill="#ababab" d="M0 0h30v380H0Z"/><path fill="#e6e6e6" d="M.3.3h29.4v379.4H0Z"/><path fill="#c91847" d="M.3 16h29.4v16H0Z"/><path d="M4.75 277h20.5c2.216 0 4 1.784 4 4v58c0 2.216-1.784 4-4 4H4.75c-2.216 0-4-1.784-4-4v-58c0-2.216 1.784-4 4-4z"/><path d="M0 346h29.25v20H0Z" style="fill:#1994b3"/><g aria-label="AUX" style="font-weight:700;font-family:&quot;Envy Code R&quot;;-inkscape-font-specification:&quot;Envy Code R&quot;;letter-spacing:0;word-spacing:0;fill:#fff;stroke-width:1px"><path d="M5 21.732q0-.544.244-.99.25-.445.66-.756.408-.317.927-.488.519-.177 1.062-.177t1.062.177q.519.17.928.488.409.311.653.757.25.445.25.989V28H8.857v-3.857H6.93V28H5Zm3.857 1.446v-1.446q0-.36-.018-.629-.012-.275-.104-.452-.091-.183-.287-.274-.195-.092-.555-.092-.36 0-.555.092-.196.091-.287.274-.092.177-.11.452-.012.269-.012.629v1.446zM11.714 19.32h1.929v6.27q0 .36.012.634.018.268.11.452.091.177.287.268.195.092.555.092.36 0 .555-.092.196-.091.287-.268.092-.184.104-.452.018-.275.018-.635v-6.268H17.5v6.268q0 .543-.25.989-.244.445-.653.763-.41.311-.928.488-.519.171-1.062.171t-1.062-.17q-.519-.178-.928-.49-.409-.317-.659-.762-.244-.446-.244-.989v-2.41zM21.32 21.732l.965-2.411h1.941l-1.953 4.34L24.226 28h-1.94l-.965-2.41-.965 2.41h-1.928l1.916-4.34-1.916-4.34h1.928z" style="font-size:12.5px"/></g><g aria-label="GROUP12" style="font-family:&quot;Envy Code R&quot;;-inkscape-font-specification:&quot;Envy Code R&quot;;letter-spacing:0;word-spacing:0;stroke-width:1px"><path d="M7.086 41.383q0 .117-.098.226-.093.11-.234.2-.14.086-.305.14Q6.29 42 6.16 42q-.32 0-.601-.121-.282-.121-.493-.328-.207-.211-.328-.492-.12-.282-.12-.602v-2.469q0-.32.12-.601.121-.282.328-.489.211-.21.493-.332.28-.12.601-.12.281 0 .531.093.25.094.45.262.199.164.336.39.14.227.195.489h-.64q-.048-.133-.134-.246-.085-.114-.199-.196-.113-.082-.25-.129-.136-.047-.289-.047-.191 0-.36.075-.167.07-.296.199-.125.125-.2.293-.07.168-.07.36v2.468q0 .191.07.36.075.167.2.296.129.125.297.2.168.07.36.07.187 0 .355-.102.168-.101.293-.246.129-.144.203-.3.074-.16.074-.278v-.926h-.617v-.617h1.234V42h-.617ZM10.809 39.492q1.218 2.496 1.218 2.508h-.707q-1.203-2.457-1.203-2.469h-.586V42h-.617v-5.555h1.543q.32 0 .602.121.28.121.488.332.21.207.332.489.121.281.121.601 0 .274-.09.52t-.25.445q-.16.2-.379.34t-.472.2Zm-.352-.578q.191 0 .36-.07.167-.074.292-.2.13-.128.2-.296.074-.168.074-.36 0-.191-.074-.36-.07-.167-.2-.292-.125-.129-.293-.2-.168-.074-.359-.074h-.926v1.852zM13.21 37.988q0-.32.122-.601.121-.282.328-.489.211-.21.492-.332.282-.12.602-.12t.601.12q.282.121.489.332.21.207.332.489.12.281.12.601v2.469q0 .32-.12.602-.121.28-.332.492-.207.207-.489.328-.28.121-.601.121-.32 0-.602-.121-.28-.121-.492-.328-.207-.211-.328-.492-.121-.282-.121-.602zm1.544-.925q-.191 0-.36.074-.167.07-.296.199-.125.125-.2.293-.07.168-.07.36v2.468q0 .191.07.36.075.167.2.296.129.125.297.2.168.07.359.07.191 0 .36-.07.167-.075.292-.2.13-.129.2-.297.074-.168.074-.359v-2.469q0-.191-.075-.36-.07-.167-.199-.292-.125-.129-.293-.2-.168-.074-.36-.074zM17.508 36.445h.617v4.012q0 .191.07.36.075.167.2.296.128.125.296.2.168.07.36.07.191 0 .36-.07.167-.075.292-.2.129-.129.2-.297.074-.168.074-.359v-4.012h.617v4.012q0 .32-.121.602-.121.28-.332.492-.207.207-.489.328-.28.121-.601.121-.32 0-.602-.121-.281-.121-.492-.328-.207-.211-.328-.492-.121-.282-.121-.602v-1.543zM22.422 42h-.617v-5.555h1.543q.32 0 .601.121.281.121.488.332.211.207.333.489.12.281.12.601 0 .32-.12.602-.122.281-.332.492-.208.207-.489.328-.281.121-.601.121h-.926zm.926-3.086q.191 0 .359-.07.168-.074.293-.2.129-.128.2-.296.073-.168.073-.36 0-.191-.074-.36-.07-.167-.199-.292-.125-.129-.293-.2-.168-.074-.36-.074h-.925v1.852zM19.234 78.063h.153q.097 0 .18-.036.085-.035.148-.097.062-.063.098-.145.039-.086.039-.183v-.157h.617v4.938h.617V83h-1.852v-.617h.618V78.68h-.618zM20.469 87.445q.254 0 .476.098.227.098.395.266t.265.394q.098.223.098.477v.617q0 .172-.105.34-.106.168-.282.328-.171.16-.394.316-.223.153-.453.305l-.453.3q-.223.15-.399.298-.172.144-.277.293-.106.144-.106.289v.617h2.47V93h-3.087v-1.39q0-.172.106-.344.105-.172.277-.34.176-.168.398-.328.223-.164.454-.32.23-.157.453-.305.222-.149.394-.285.176-.141.281-.266.106-.129.106-.246v-.496q0-.13-.05-.239-.048-.113-.134-.195-.082-.086-.195-.133-.11-.05-.238-.05h-.617q-.13 0-.243.05-.109.047-.195.133-.082.082-.133.195-.047.11-.047.239h-.617q0-.254.098-.477.098-.226.265-.394.168-.168.391-.266.227-.098.48-.098z" style="font-size:8px"/></g><g aria-label="OUTDAISY" style="font-family:&quot;Envy Code R&quot;;-inkscape-font-specification:&quot;Envy Code R&quot;;letter-spacing:0;word-spacing:0;fill:#fff;stroke-width:1px"><path d="M9.617 282.988q0-.32.121-.601.121-.282.328-.489.211-.21.493-.332.28-.12.601-.12.32 0 .602.12.281.122.488.332.21.207.332.489.121.281.121.601v2.469q0 .32-.121.602-.121.28-.332.492-.207.207-.488.328-.282.121-.602.121t-.601-.121q-.282-.121-.493-.328-.207-.211-.328-.492-.12-.282-.12-.602zm1.543-.926q-.191 0-.36.075-.167.07-.296.199-.125.125-.2.293-.07.168-.07.36v2.468q0 .191.07.36.075.167.2.296.129.125.297.2.168.07.36.07.19 0 .359-.07.168-.075.293-.2.128-.129.199-.297.074-.168.074-.359v-2.469q0-.191-.074-.36-.07-.167-.2-.292-.124-.129-.292-.2-.168-.074-.36-.074zM13.914 281.445h.617v4.012q0 .191.07.36.075.167.2.296.129.125.297.2.168.07.359.07.191 0 .36-.07.167-.075.292-.2.13-.129.2-.297.074-.168.074-.359v-4.012H17v4.012q0 .32-.121.602-.121.28-.332.492-.207.207-.488.328-.282.121-.602.121t-.602-.121q-.28-.121-.492-.328-.207-.211-.328-.492-.12-.282-.12-.602v-1.543zM19.445 282.063h-1.234v-.618h3.086v.618h-1.235V287h-.617zM4.617 350.445H6.16q.32 0 .602.121.281.122.488.332.21.207.332.489.121.281.121.601v2.469q0 .32-.121.602-.121.28-.332.492-.207.207-.488.328-.282.121-.602.121H4.617Zm1.543 4.938q.192 0 .36-.07.168-.075.293-.2.128-.129.199-.297.074-.168.074-.359v-2.469q0-.191-.074-.36-.07-.167-.2-.292-.125-.129-.292-.2-.168-.073-.36-.073h-.926v4.32zM8.914 351.988q0-.32.121-.601.121-.282.328-.489.211-.21.492-.332.282-.12.602-.12t.602.12q.28.122.488.332.21.207.332.489.121.281.121.601V356h-.617v-2.469H9.53V356h-.617Zm2.469.926v-.926q0-.191-.074-.36-.07-.167-.2-.292-.125-.129-.293-.2-.168-.073-.359-.073-.191 0-.36.074-.167.07-.296.199-.125.125-.2.293-.07.168-.07.36v.925zM13.21 355.383h1.235v-4.32h-1.234v-.618h3.086v.618h-1.235v4.32h1.235V356H13.21zM18.125 351.988q0 .192.07.36.075.168.2.297.128.125.296.199.168.07.36.07.32 0 .601.121.282.121.489.332.21.207.332.488.12.282.12.602t-.12.602q-.121.28-.332.492-.207.207-.489.328-.28.121-.601.121h-1.543v-.617h1.543q.191 0 .36-.07.167-.075.292-.2.129-.129.2-.297.074-.168.074-.359 0-.191-.075-.36-.07-.167-.199-.292-.125-.13-.293-.2-.168-.074-.36-.074-.32 0-.6-.12-.282-.122-.493-.329-.207-.21-.328-.492-.121-.281-.121-.602 0-.32.12-.601.122-.282.329-.489.211-.21.492-.332.281-.12.602-.12h1.543v.617H19.05q-.192 0-.36.074-.168.07-.296.199-.125.125-.2.293-.07.168-.07.36zM23.04 354.156l-1.235-3.71h.617l.926 2.777.925-2.778h.618l-1.235 3.703V356h-.617z" style="font-size:8px"/></g></svg>