<svg xmlns="http://www.w3.org/2000/svg" width="75" height="380"><path fill="#ababab" d="M0 0h75v380H0z"/><path fill="#e6e6e6" d="M.3.3h74.4v379.4H0z"/><path fill="#c91847" d="M.3 16h74.4v16H0z"/><circle cx="37.5" cy="360" r="7" style="fill:#556746"/><circle cx="39.5" cy="362" r="5" style="fill:#e6e6e6"/><circle cx="41.5" cy="364" r="3" style="fill:#556746"/><path d="M37 80v16M18 244h39M18 288h39" style="fill:none;stroke:#000;stroke-width:.7"/><rect width="28.5" height="42" x="5.5" y="262" rx="4" ry="4"/><rect width="28.5" height="42" x="40.5" y="262" rx="4" ry="4"/><rect width="63.6" height="42" x="5.5" y="306" rx="4" ry="4"/><path d="m18.857 22.214-.964 2.41-.964-2.41V28h-1.923L15 19.345v-.024h1.447l1.446 3.375 1.447-3.375h1.446V28h-1.929zm2.857 4.822h1.929v-6.75h-1.93v-.965H27.5v.964h-1.929v6.75H27.5V28h-5.786zm9.607-5.304.964-2.411h1.941l-1.953 4.34L34.226 28h-1.94l-.965-2.41-.965 2.41h-1.928l1.916-4.34-1.916-4.34h1.928zm3.82-2.411h5.787v.964H37.07v2.893h2.893v.965H37.07v2.893h3.858V28h-5.786zm10.639 4.76q1.904 3.9 1.904 3.919h-1.971q-.946-1.929-1.44-2.88-.489-.953-.489-.965V28h-1.929v-8.68h3.376q.5 0 .94.19t.763.519q.33.323.518.763.19.44.19.94 0 .427-.14.811t-.391.696-.592.531-.739.312m-1.031-.903q.299 0 .488-.11.189-.116.293-.31.104-.202.14-.465.043-.262.043-.561t-.043-.562q-.036-.262-.14-.458-.104-.201-.293-.31-.19-.117-.488-.117h-.965v2.893zm4.785 0h4.821v.965h-4.821zm8.166-3.857q-.5 0-.94.152-.44.153-.769.415-.33.263-.519.617-.189.348-.189.745h1.941q0-.202.037-.373.036-.177.097-.305.068-.134.153-.207.092-.08.19-.08h.964q.097 0 .183.08.091.073.152.207.067.128.104.305.037.171.037.373v.775q0 .22-.122.415-.116.195-.312.384-.195.183-.451.366-.257.184-.537.367-.434.287-.867.592-.434.299-.781.592t-.568.567-.22.52V28h5.786v-.964h-3.857v-.965q0-.268.14-.5.14-.238.367-.452.225-.22.512-.415.287-.201.58-.397.409-.268.818-.543.409-.28.726-.55.324-.268.525-.518.202-.256.202-.482v-.964q0-.397-.19-.745-.189-.354-.518-.617-.33-.262-.77-.415-.439-.152-.94-.152z" aria-label="MIXER-2" style="font-weight:700;font-size:12.5px;font-family:&quot;Envy Code R&quot;;-inkscape-font-specification:&quot;Envy Code R&quot;;letter-spacing:0;word-spacing:0;fill:#fff;stroke-width:1px"/><g aria-label="LEVEL12" style="font-family:&quot;Envy Code R&quot;;-inkscape-font-specification:&quot;Envy Code R&quot;;letter-spacing:0;word-spacing:0;stroke-width:1px"><path d="M24.771 39.057h.772v6.172h3.086V46H24.77zm5.372 0H34v.771h-3.086v2.315h2.315v.771h-2.315v2.315H34V46h-3.857zm6.142 0 1.157 5.078 1.158-5.078h.771L37.828 46h-.771l-1.543-6.943zm4.6 0h3.857v.771h-3.086v2.315h2.315v.771h-2.315v2.315h3.086V46h-3.857zm5.37 0h.772v6.172h3.086V46h-3.857zM19.043 117.828h.19q.122 0 .225-.044.107-.044.186-.122.078-.078.122-.18.048-.108.048-.23v-.195h.772v6.172h.771V124h-2.314v-.771h.771v-4.63h-.771zM55.086 117.057q.317 0 .596.122.283.122.493.332t.332.493q.122.278.122.596v.771q0 .215-.132.425t-.351.41q-.215.2-.494.396-.278.19-.566.38t-.566.376q-.279.186-.499.371-.214.181-.346.367-.132.18-.132.361v.772h3.086V124H52.77v-1.738q0-.215.132-.43t.347-.425q.22-.21.498-.41.278-.205.566-.4.289-.196.567-.381.278-.186.493-.357.22-.175.352-.332.131-.16.131-.307v-.62q0-.162-.063-.298-.059-.142-.166-.244-.103-.108-.244-.166-.137-.064-.298-.064h-.772q-.16 0-.302.064-.137.058-.244.166-.103.102-.166.244-.059.136-.059.298h-.772q0-.318.123-.596.122-.283.332-.493t.488-.332q.283-.122.6-.122z" style="font-size:10px"/></g><g aria-label="CVMONOSTIN 1IN 2" style="font-family:&quot;Envy Code R&quot;;-inkscape-font-specification:&quot;Envy Code R&quot;;letter-spacing:0;word-spacing:0;stroke-width:1px"><path d="M35.172 125.063q-.2 0-.371.074-.172.07-.297.199-.125.125-.2.293-.07.168-.07.36v2.468q0 .191.07.36.075.167.2.296.125.125.297.2.172.07.37.07.165 0 .31-.043.144-.047.261-.13.121-.081.207-.194.09-.114.137-.25h.617q-.055.265-.191.492-.137.226-.34.39-.2.164-.453.258-.254.094-.547.094-.328 0-.613-.121-.282-.121-.493-.328-.21-.211-.332-.492-.117-.282-.117-.602v-2.469q0-.32.117-.601.121-.282.332-.489.211-.21.493-.332.285-.12.613-.12.293 0 .547.093.258.094.457.262.199.164.336.39.136.227.191.489h-.617q-.047-.133-.137-.246-.086-.114-.203-.196t-.266-.129q-.144-.047-.308-.047m3.36-.618.925 4.063.926-4.063H41L39.766 130h-.618l-1.234-5.555zM32.086 154.68l-.926 1.617-.926-1.617V159h-.617v-5.555h.617l.926 1.852.926-1.852h.617V159h-.617zm1.828.308q0-.32.121-.601.121-.282.328-.489.211-.21.492-.332.282-.12.602-.12t.602.12q.28.121.488.332.21.207.332.489.121.281.121.601v2.469q0 .32-.121.602-.121.28-.332.492-.207.207-.488.328t-.602.121-.602-.121q-.28-.121-.492-.328-.207-.211-.328-.492-.12-.282-.12-.602zm1.543-.925q-.191 0-.36.074-.167.07-.296.199-.125.125-.2.293-.07.168-.07.36v2.468q0 .191.07.36.075.167.2.296.129.125.297.2.168.07.359.07t.36-.07q.167-.075.292-.2.13-.129.2-.297.074-.168.074-.359v-2.469q0-.191-.074-.36-.07-.167-.2-.292-.125-.129-.293-.2-.168-.074-.359-.074M38.211 159v-5.555h.617l1.852 4.11v-4.11h.617V159h-.617l-1.852-4.11V159Zm4.297-4.012q0-.32.12-.601.122-.282.329-.489.211-.21.492-.332.281-.12.602-.12t.601.12q.282.121.489.332.21.207.332.489.12.281.12.601v2.469q0 .32-.12.602-.121.28-.332.492-.207.207-.489.328-.28.121-.601.121t-.602-.121q-.281-.121-.492-.328-.207-.211-.328-.492t-.121-.602zm1.543-.925q-.192 0-.36.074-.168.07-.296.199-.125.125-.2.293-.07.168-.07.36v2.468q0 .191.07.36.075.167.2.296.128.125.296.2.168.07.36.07t.36-.07q.167-.075.292-.2.129-.129.2-.297.074-.168.074-.359v-2.469q0-.191-.075-.36-.07-.167-.199-.292-.125-.129-.293-.2-.168-.074-.36-.074M34.234 188.988q0 .192.07.36.075.168.2.297.129.125.297.199.168.07.36.07.32 0 .6.121.282.121.489.332.21.207.332.488.121.282.121.602t-.121.602q-.121.28-.332.492-.207.207-.488.328t-.602.121h-1.543v-.617h1.543q.192 0 .36-.07.167-.075.292-.2.13-.129.2-.297.074-.168.074-.359t-.074-.36q-.07-.167-.2-.292-.124-.13-.292-.2-.168-.074-.36-.074-.32 0-.601-.12-.282-.122-.493-.329-.207-.21-.328-.492-.12-.281-.12-.602t.12-.601q.121-.281.328-.489.211-.21.493-.332.28-.12.601-.12h1.543v.617H35.16q-.191 0-.36.074-.167.07-.296.199-.125.125-.2.293-.07.168-.07.36m4.914-.925h-1.234v-.618H41v.618h-1.234V193h-.618zM11.617 225.383h1.235v-4.32h-1.235v-.618h3.086v.618H13.47v4.32h1.234V226h-3.086Zm4.297.617v-5.555h.617l1.852 4.11v-4.11H19V226h-.617l-1.852-4.11V226Zm9.211-4.937h.152q.098 0 .18-.036.086-.035.148-.097.063-.063.098-.145.04-.086.04-.184v-.156h.616v4.938h.618V226h-1.852v-.617h.617v-3.703h-.617ZM46.617 225.383h1.235v-4.32h-1.235v-.618h3.086v.618H48.47v4.32h1.234V226h-3.086Zm4.297.617v-5.555h.617l1.852 4.11v-4.11H54V226h-.617l-1.852-4.11V226Zm10.445-5.555q.254 0 .477.098.227.098.394.266.168.168.266.394.098.223.098.477v.617q0 .172-.106.34-.105.168-.281.328-.172.16-.394.316-.223.153-.454.305l-.453.3q-.222.15-.398.298-.172.144-.278.293-.105.144-.105.289v.617h2.469V226h-3.086v-1.39q0-.173.105-.344.106-.172.278-.34.175-.168.398-.328.223-.164.453-.32.23-.157.453-.305.223-.149.395-.286.176-.14.281-.265.106-.129.106-.246v-.496q0-.13-.051-.239-.047-.113-.133-.195-.082-.086-.195-.133-.11-.05-.239-.05h-.617q-.129 0-.242.05-.11.047-.195.133-.082.082-.133.195-.047.11-.047.239h-.617q0-.254.097-.477.098-.226.266-.394t.39-.266q.227-.098.481-.098z" style="font-size:8px"/></g><g aria-label="CH 1CH 2MX 1MX 2" style="font-family:&quot;Envy Code R&quot;;-inkscape-font-specification:&quot;Envy Code R&quot;;letter-spacing:0;word-spacing:0;fill:#fff;stroke-width:1px"><path d="M13.172 267.063q-.2 0-.371.074-.172.07-.297.199-.125.125-.2.293-.07.168-.07.36v2.468q0 .191.07.36.075.167.2.296.125.125.297.2.172.07.37.07.165 0 .31-.043.144-.047.261-.13.121-.081.207-.194.09-.114.137-.25h.617q-.055.265-.191.492-.137.226-.34.39-.2.164-.453.258-.254.094-.547.094-.328 0-.613-.121-.282-.121-.493-.328-.21-.211-.332-.492-.117-.282-.117-.602v-2.469q0-.32.117-.601.121-.282.332-.489.211-.21.493-.332.285-.12.613-.12.293 0 .547.093.258.094.457.262.199.164.336.39.136.227.191.489h-.617q-.047-.133-.137-.246-.086-.114-.203-.196t-.266-.129q-.144-.047-.308-.047m2.742-.618h.617v2.47h1.852v-2.47H19V272h-.617v-2.469H16.53V272h-.617Zm9.211.618h.152q.098 0 .18-.036.086-.035.148-.097.063-.063.098-.145.04-.086.04-.183v-.157h.616v4.938h.618V272h-1.852v-.617h.617v-3.703h-.617ZM48.172 267.063q-.2 0-.371.074-.172.07-.297.199-.125.125-.2.293-.07.168-.07.36v2.468q0 .191.07.36.075.167.2.296.125.125.297.2.172.07.37.07.165 0 .31-.043.144-.047.261-.13.121-.081.207-.194.09-.114.137-.25h.617q-.055.265-.191.492-.137.226-.34.39-.2.164-.453.258-.254.094-.547.094-.328 0-.613-.121-.282-.121-.493-.328-.21-.211-.332-.492-.117-.282-.117-.602v-2.469q0-.32.117-.601.121-.282.332-.489.211-.21.493-.332.285-.12.613-.12.293 0 .547.093.258.094.457.262.199.164.336.39.136.227.191.489h-.617q-.047-.133-.137-.246-.086-.114-.203-.196t-.266-.129q-.144-.047-.308-.047m2.742-.618h.617v2.47h1.852v-2.47H54V272h-.617v-2.469H51.53V272h-.617zm10.445 0q.254 0 .477.098.227.098.394.266.168.168.266.394.098.223.098.477v.617q0 .172-.106.34-.105.168-.281.328-.172.16-.394.316-.223.153-.454.305l-.453.3q-.222.15-.398.298-.172.144-.278.293-.105.144-.105.289v.617h2.469V272h-3.086v-1.39q0-.173.105-.344.106-.172.278-.34.175-.168.398-.328.223-.164.453-.32.23-.157.453-.305.223-.149.395-.285.176-.141.281-.266.106-.129.106-.246v-.496q0-.13-.051-.239-.047-.113-.133-.195-.082-.086-.195-.133-.11-.05-.239-.05h-.617q-.129 0-.242.05-.11.047-.195.133-.082.082-.133.195-.047.11-.047.239h-.617q0-.254.097-.477.098-.226.266-.394t.39-.266q.227-.098.481-.098zM14.086 311.68l-.926 1.617-.926-1.617V316h-.617v-5.555h.617l.926 1.852.926-1.852h.617V316h-.617zm3.371.789.898-2.024h.649l-1.211 2.778 1.21 2.777h-.648l-.898-2.02-.898 2.02h-.645l1.207-2.777-1.21-2.778h.648zm7.668-1.406h.152q.098 0 .18-.036.086-.035.148-.097.063-.063.098-.145.04-.086.04-.183v-.157h.616v4.938h.618V316h-1.852v-.617h.617v-3.703h-.617ZM49.086 311.68l-.926 1.617-.926-1.617V316h-.617v-5.555h.617l.926 1.852.926-1.852h.617V316h-.617zm3.371.789.898-2.024h.649l-1.211 2.778 1.21 2.777h-.648l-.898-2.02-.898 2.02h-.645l1.207-2.777-1.21-2.778h.648zm8.902-2.024q.254 0 .477.098.227.098.394.266.168.168.266.394.098.223.098.477v.617q0 .172-.106.34-.105.168-.281.328-.172.16-.394.316-.223.153-.454.305l-.453.3q-.222.15-.398.298-.172.144-.278.293-.105.144-.105.289v.617h2.469V316h-3.086v-1.39q0-.173.105-.344.106-.172.278-.34.175-.168.398-.328.223-.164.453-.32.23-.157.453-.305.223-.149.395-.285.176-.141.281-.266.106-.129.106-.246v-.496q0-.13-.051-.239-.047-.113-.133-.195-.082-.086-.195-.133-.11-.05-.239-.05h-.617q-.129 0-.242.05-.11.047-.195.133-.082.082-.133.195-.047.11-.047.239h-.617q0-.254.097-.477.098-.226.266-.394t.39-.266q.227-.098.481-.098z" style="font-size:8px"/></g></svg>