<svg xmlns="http://www.w3.org/2000/svg" width="30" height="380"><path fill="#ababab" d="M0 0h30v380H0z"/><path fill="#e6e6e6" d="M.3.3h29.4v379.4H0z"/><path fill="#c91847" d="M.3 16h29.4v16H0z"/><circle cx="15" cy="360" r="7" style="fill:#556746"/><circle cx="17" cy="362" r="5" style="fill:#e6e6e6"/><circle cx="19" cy="364" r="3" style="fill:#556746"/><rect width="28.5" height="98" x=".75" y="36" fill="#e6e6e6" stroke="#000" rx="4" ry="4"/><rect width="28.5" height="98" x=".75" y="207" fill="#e6e6e6" stroke="#000" rx="4" ry="4"/><rect width="28.5" height="42" x=".75" y="134" rx="4" ry="4"/><rect width="28.5" height="42" x=".75" y="306" rx="4" ry="4"/><path d="m8.857 22.214-.964 2.41-.964-2.41V28H5.006L5 19.345v-.024h1.447l1.446 3.375 1.447-3.375h1.446V28H8.857Zm2.857 4.822h1.929v-6.75h-1.93v-.965H17.5v.964h-1.929v6.75H17.5V28h-5.786zm9.607-5.304.964-2.411h1.941l-1.953 4.34L24.226 28h-1.94l-.965-2.41-.965 2.41h-1.928l1.916-4.34-1.916-4.34h1.928z" aria-label="MIX" style="font-weight:700;font-size:12.5px;font-family:&quot;Envy Code R&quot;;-inkscape-font-specification:&quot;Envy Code R&quot;;letter-spacing:0;word-spacing:0;fill:#fff;stroke-width:1px"/><g aria-label="IN AIN B" style="font-family:&quot;Envy Code R&quot;;-inkscape-font-specification:&quot;Envy Code R&quot;;letter-spacing:0;word-spacing:0;stroke-width:1px"><path d="M6.617 46.383h1.235v-4.32H6.617v-.618h3.086v.617H8.47v4.32h1.234V47H6.617Zm4.297.617v-5.555h.617l1.852 4.11v-4.11H14V47h-.617l-1.852-4.11V47Zm8.594-4.012q0-.32.12-.601.122-.282.329-.489.211-.21.492-.332.281-.12.602-.12t.601.12q.282.121.489.332.21.207.332.489.12.281.12.601V47h-.616v-2.469h-1.852V47h-.617zm2.469.926v-.926q0-.191-.075-.36-.07-.167-.199-.292-.125-.129-.293-.2-.168-.074-.36-.074-.19 0-.359.075-.168.07-.296.199-.125.125-.2.293-.07.168-.07.36v.925zM6.617 217.383h1.235v-4.32H6.617v-.618h3.086v.618H8.47v4.32h1.234V218H6.617Zm4.297.617v-5.555h.617l1.852 4.11v-4.11H14V218h-.617l-1.852-4.11V218Zm8.594-5.555h1.543q.32 0 .601.121.282.122.489.332.21.207.332.489.12.281.12.601 0 .383-.171.703-.168.32-.45.532.282.21.45.535.172.32.172.699 0 .32-.121.602-.121.28-.332.492-.207.207-.489.328-.28.121-.601.121h-1.543zm1.543 2.47q.191 0 .36-.071.167-.074.292-.2.129-.128.2-.296.074-.168.074-.36t-.075-.36q-.07-.167-.199-.292-.125-.129-.293-.2-.168-.073-.36-.073h-.925v1.851zm0 2.468q.191 0 .36-.07.167-.075.292-.2.129-.129.2-.297.074-.168.074-.359t-.075-.36q-.07-.167-.199-.292-.125-.13-.293-.2-.168-.074-.36-.074h-.925v1.852z" style="font-size:8px"/></g><g aria-label="OUTOUT" style="font-family:&quot;Envy Code R&quot;;-inkscape-font-specification:&quot;Envy Code R&quot;;letter-spacing:0;word-spacing:0;fill:#fff;stroke-width:1px"><path d="M9.617 139.988q0-.32.121-.601.121-.282.328-.489.211-.21.493-.332.28-.12.601-.12t.602.12q.281.121.488.332.21.207.332.489.121.281.121.601v2.469q0 .32-.121.602-.121.28-.332.492-.207.207-.488.328t-.602.121-.601-.121-.493-.328q-.207-.211-.328-.492-.12-.282-.12-.602zm1.543-.925q-.191 0-.36.074-.167.07-.296.199-.125.125-.2.293-.07.168-.07.36v2.468q0 .191.07.36.075.167.2.296.129.125.297.2.168.07.36.07.19 0 .359-.07.168-.075.293-.2.128-.129.199-.297.074-.168.074-.359v-2.469q0-.191-.074-.36-.07-.167-.2-.292-.124-.129-.292-.2-.168-.074-.36-.074m2.754-.618h.617v4.012q0 .191.07.36.075.167.2.296.129.125.297.2.168.07.359.07t.36-.07q.167-.075.292-.2.13-.129.2-.297.074-.168.074-.359v-4.012H17v4.012q0 .32-.121.602-.121.28-.332.492-.207.207-.488.328t-.602.121-.602-.121q-.28-.121-.492-.328-.207-.211-.328-.492-.12-.282-.12-.602v-1.543zm5.531.618h-1.234v-.618h3.086v.618h-1.235V144h-.617zM9.617 311.988q0-.32.121-.601.121-.282.328-.489.211-.21.493-.332.28-.12.601-.12t.602.12.488.332q.21.207.332.489.121.281.121.601v2.469q0 .32-.121.602-.121.28-.332.492-.207.207-.488.328t-.602.121-.601-.121-.493-.328q-.207-.211-.328-.492-.12-.282-.12-.602zm1.543-.926q-.191 0-.36.075-.167.07-.296.199-.125.125-.2.293-.07.168-.07.36v2.468q0 .191.07.36.075.167.2.296.129.125.297.2.168.07.36.07.19 0 .359-.07.168-.075.293-.2.128-.129.199-.297.074-.168.074-.359v-2.469q0-.191-.074-.36-.07-.167-.2-.292-.124-.129-.292-.2-.168-.074-.36-.074m2.754-.617h.617v4.012q0 .191.07.36.075.167.2.296.129.125.297.2.168.07.359.07t.36-.07q.167-.075.292-.2.13-.129.2-.297.074-.168.074-.359v-4.012H17v4.012q0 .32-.121.602-.121.28-.332.492-.207.207-.488.328t-.602.121-.602-.121q-.28-.121-.492-.328-.207-.211-.328-.492-.12-.282-.12-.602v-1.543zm5.531.618h-1.234v-.618h3.086v.618h-1.235V316h-.617z" style="font-size:8px"/></g></svg>